<?xml version="1.0" encoding="UTF-8"?>
<svg width="205px" height="183px" viewBox="0 0 205 183" version="1.1" xmlns="http://www.w3.org/2000/svg" xmlns:xlink="http://www.w3.org/1999/xlink">
    <title>atoms/img/ilustraciones/big/recibir</title>
    <defs>
        <path d="M1.02178723,9.6538659 C0.949301473,10.9402698 0.877689034,12.1681612 0.807823241,13.410899 L0.807823241,13.410899 C0.75717054,14.5488381 0.709137807,15.6719307 1.08029984,16.6063857 L1.08029984,16.6063857 C1.37198953,17.5783936 2.49246219,18.1801127 3.19286678,17.893663 L3.19286678,17.893663 C3.86183175,17.5906201 3.77537283,17.1749186 3.72821342,17.1819052 L3.72821342,17.1819052 C3.64437447,17.1268859 3.46534337,17.4316754 3.06361506,17.4718482 L3.06361506,17.4718482 C2.67149329,17.5085278 2.07763404,17.146099 1.9317892,16.3819418 L1.9317892,16.3819418 C1.73092504,15.6247713 1.84358363,14.6291837 1.96322881,13.4746515 L1.96322881,13.4746515 C2.06628085,12.2345337 2.17020622,11.0075157 2.27762488,9.72547834 L2.27762488,9.72547834 C2.64966023,4.39908489 2.67149329,0.067405671 2.32740426,0.0473192553 L2.32740426,0.0473192553 C2.32740426,0.0473192553 2.32653093,0.0473192553 2.32565761,0.0473192553 L2.32565761,0.0473192553 C1.97720196,0.0473192553 1.39469591,4.34057228 1.02178723,9.6538659 L1.02178723,9.6538659 Z" id="path-1"></path>
        <path d="M0.361555483,0.600945442 C0.22706383,0.883028584 6.93330671,4.31780567 15.3399083,8.27308292 L15.3399083,8.27308292 C23.7473833,12.2301068 30.6702101,15.204643 30.8029552,14.9251798 L30.8029552,14.9251798 C30.9348268,14.6422233 24.2294573,11.2074463 15.821109,7.25216901 L15.821109,7.25216901 C7.78654272,3.47068292 1.10737283,0.582605671 0.41832144,0.582605671 L0.41832144,0.582605671 C0.386881833,0.582605671 0.36766874,0.588718928 0.361555483,0.600945442 L0.361555483,0.600945442 Z" id="path-3"></path>
    </defs>
    <g id="UI-KIT" stroke="none" stroke-width="1" fill="none" fill-rule="evenodd">
        <g id="Correos_web_UIkit_54_Illustrations" transform="translate(-1085.000000, -944.000000)">
            <g id="Group" transform="translate(1072.000000, 920.000000)">
                <g id="Group-61" transform="translate(13.000000, 24.000000)">
                    <g id="Group-17" transform="translate(0.000000, 5.379666)">
                        <path d="M25.7700854,46.148989 C45.6565102,13.0457026 147.531317,-23.5761998 196.214676,63.3848804 C244.898034,150.346834 76.9301862,197.233768 28.120196,169.447269 C-20.6897942,141.660769 5.88366049,79.2531488 25.7700854,46.148989" id="Fill-1" fill="#F3F2F2"></path>
                        <path d="M90.1067876,66.2388107 C93.4297794,61.5612958 67.2964792,96.6618706 67.2964792,96.6618706 L86.0475849,117.892339 L96.3536628,105.106025 L90.1067876,66.2388107" id="Fill-3" fill="#FFCD00"></path>
                        <path d="M80.6225934,176.435245 C116.619197,174.721787 147.795061,159.493664 147.795061,159.493664 L148.443939,139.670991 L149.736457,92.4618011 C148.455293,73.660916 130.975744,64.4316446 130.975744,64.4316446 C123.749875,60.8370495 112.730292,58.7943484 102.80149,59.2825356 C92.4377724,59.7934292 89.8789377,64.7530273 85.6066445,74.2015026 C82.1587675,81.8360872 81.642634,92.8120034 81.642634,120.596756 L80.6225934,176.435245 Z" id="Fill-5" fill="#FFCD00"></path>
                        <path d="M131.167002,17.4948437 L130.422058,27.1450565 C130.422058,27.1450565 138.743074,28.2498093 136.370257,35.7368025 C133.999187,43.2176823 128.310364,39.9444699 128.310364,39.9444699 C128.310364,39.9444699 126.887722,59.1226303 106.969858,53.0425596 C91.1199289,48.2017334 92.0893168,27.956373 94.1014517,10.6960286 C94.8804553,4.00899886 101.294135,-0.590790336 107.989898,0.699106882 L119.965769,2.9976915 C126.885102,4.32863487 131.700602,10.5597904 131.167002,17.4948437" id="Fill-7" fill="#FCBFBF"></path>
                        <path d="M110.915616,25.36671 C109.816103,25.36671 108.92444,24.4750478 108.92444,23.3764082 C108.92444,22.2768953 109.816103,21.3843598 110.915616,21.3843598 C112.014255,21.3843598 112.906791,22.2768953 112.906791,23.3764082 C112.906791,24.4750478 112.014255,25.36671 110.915616,25.36671" id="Fill-9" fill="#000000"></path>
                        <path d="M98.9709228,25.36671 C97.8705366,25.36671 96.9797477,24.4750478 96.9797477,23.3764082 C96.9797477,22.2768953 97.8705366,21.3843598 98.9709228,21.3843598 C100.069562,21.3843598 100.961225,22.2768953 100.961225,23.3764082 C100.961225,24.4750478 100.069562,25.36671 98.9709228,25.36671" id="Fill-11" fill="#000000"></path>
                        <path d="M130.823699,35.320315 L125.506912,63.817699 C124.309587,70.2392387 118.011186,74.3464741 111.687458,72.8312597 C105.829211,71.4278305 102.074798,65.6752558 103.128898,59.7157035 L106.014355,43.3802076 L130.823699,35.320315" id="Fill-13" fill="#FCBFBF"></path>
                        <path d="M105.907635,35.532707 C105.822923,35.478561 105.643892,35.7816039 105.242164,35.8226501 C104.850915,35.8593296 104.255309,35.4977741 104.110338,34.733617 C103.909474,33.9764465 104.021259,32.9791123 104.141778,31.8263267 C104.245703,30.5862088 104.348755,29.3591908 104.4553,28.0762802 C104.829082,22.75076 104.850915,18.4182075 104.506826,18.3989303 C104.159244,18.3797813 103.574991,22.6800209 103.201209,28.0055411 C103.128724,29.2910717 103.056238,30.5198363 102.986372,31.7617008 C102.935719,32.8996399 102.887687,34.0227325 103.258849,34.9580609 C103.550538,35.9283221 104.671884,36.5309145 105.372289,36.2444648 C106.04038,35.9414219 105.953922,35.5257204 105.907635,35.532707" id="Fill-15" fill="#000000"></path>
                    </g>
                    <g id="Group-20" transform="translate(102.178723, 23.730730)">
                        <mask id="mask-2" fill="white">
                            <use xlink:href="#path-1"></use>
                        </mask>
                        <g id="Clip-19"></g>
                    </g>
                    <g id="Group-40" transform="translate(5.239935, 0.139732)">
                        <path d="M100.302652,58.9128582 C102.708655,60.8193211 103.990693,61.3983339 106.739912,61.4620864 C109.490004,61.5249656 111.965,60.4027463 113.393755,59.0718029 C114.821637,57.7399862 115.703693,57.0387083 115.624221,56.9243031 C115.486236,56.5968072 111.820028,59.440345 106.624633,59.3006134 C101.428365,59.201928 97.8739425,56.1924589 97.7254777,56.5103483 C97.6407654,56.6212602 97.8975222,57.0063954 100.302652,58.9128582" id="Fill-21" fill="#8E737E"></path>
                        <path d="M106.655985,47.6815826 L98.6135593,46.8143734 C98.6135593,46.8143734 99.4458355,49.6928441 103.648263,49.4553004 C106.563413,49.2902425 106.655985,47.6815826 106.655985,47.6815826" id="Fill-23" fill="#FFFFFF"></path>
                        <path d="M125.270416,33.0688025 C118.884683,29.4846872 114.378339,24.1652804 113.917225,13.1343449 C108.793442,16.8896313 104.446043,15.6503868 98.5397635,13.3413223 C96.6848267,15.5342349 94.5085072,17.4476843 92.099884,19.0048182 C91.4151992,19.4440994 90.6030094,19.8746473 89.8248791,19.6371036 C88.895664,19.3550205 88.4843292,18.2843272 88.2616319,17.3332791 C87.5551141,14.2932437 87.5297878,11.0374977 88.5838879,8.09964109 C89.6379881,5.16003782 91.8466205,2.58024338 94.740811,1.45365745 C97.8358657,0.24759919 101.316929,0.772465966 104.529009,1.60910885 C109.367215,2.87193307 114.029883,4.81245549 118.342349,7.35469706 C122.573597,9.84977922 126.639786,13.1526846 128.437083,17.7454872 C130.232634,22.3409098 130.223028,31.268885 125.894842,33.5927959" id="Fill-25" fill="#333333"></path>
                        <path d="M76.328467,121.1883 C76.5869705,121.172538 76.8218942,115.864484 77.3258012,109.284 C77.8314549,102.693035 77.6043911,97.2819295 77.289995,97.2993538 C77.0306183,97.3133691 76.7965679,102.619676 76.2917875,109.201907 C75.7870071,115.791125 76.011451,121.205724 76.328467,121.1883" id="Fill-27" fill="#000000"></path>
                        <polygon id="Fill-31" fill="#DACC92" points="0.294309656 145.784685 83.1839607 145.784685 83.1839607 77.5389042 0.294309656 77.5389042"></polygon>
                        <polygon id="Fill-32" fill="#FFCD00" points="26 109 58 109 58 77 26 77"></polygon>
                        <polygon id="Fill-29" fill="#C4BDA4" points="0.294309656 77.5389042 83.1839607 77.5389042 83.1839607 74.0613343 0.294309656 74.0613343"></polygon>
                        <g id="atoms/ico/24px/ico_correos" transform="translate(32.000000, 83.000000)" fill="#002E6D">
                            <path d="M13.7501667,8.08308333 L10.0001667,8.08308333 L6.25016667,8.08308333 L6.25016667,7.44975 L6.25016667,6.81641667 L10.0001667,6.81641667 L13.7501667,6.81641667 L13.7501667,7.44975 L13.7501667,8.08308333 Z M11.2501667,14.0989167 C11.2501667,13.3989167 10.6901667,12.8314167 10.0001667,12.8314167 C9.30933333,12.8314167 8.75016667,13.3989167 8.75016667,14.0989167 C8.75016667,14.7980833 9.30933333,15.3655833 10.0001667,15.3655833 C10.6901667,15.3655833 11.2501667,14.7980833 11.2501667,14.0989167 L11.2501667,14.0989167 Z M10.0001667,17.89975 C14.4085,17.89975 18.0643333,14.5964167 18.6626667,10.2980833 L17.3968333,10.2980833 C16.8043333,13.8939167 13.7168333,16.63225 10.0001667,16.63225 C8.61933333,16.63225 7.50183333,15.4980833 7.50183333,14.0989167 C7.50183333,12.69975 8.61933333,11.5664167 10.0001667,11.5664167 C11.381,11.5664167 12.5001667,12.6664167 12.5001667,14.0989167 C12.5001667,14.3780833 12.4443333,14.64225 12.3618333,14.8939167 C12.861,14.68725 13.3243333,14.4139167 13.7501667,14.0905833 C13.7501667,11.99975 12.0701667,10.2989167 10.0001667,10.2989167 C7.92933333,10.2989167 6.25016667,11.99975 6.25016667,14.0989167 C6.25016667,16.19725 7.92933333,17.89975 10.0001667,17.89975 L10.0001667,17.89975 Z M1.34933333,10.2980833 C1.746,13.0989167 3.4235,15.4764167 5.771,16.7930833 C5.28516667,16.01225 5.00016667,15.0905833 5.00016667,14.0989167 L5.00016667,14.0989167 L5.00016667,10.2980833 L1.34933333,10.2980833 Z M16.2501667,9.03141667 L20.0001667,9.03141667 C20.0001667,14.6289167 15.5226667,19.1664167 10.0001667,19.1664167 C4.47766667,19.1664167 0.000166666667,14.6289167 0.000166666667,9.03141667 L6.25016667,9.03141667 L6.25016667,10.7555833 C7.166,9.70058333 8.50433333,9.03141667 10.0001667,9.03141667 C12.3851667,9.03141667 14.3768333,10.72475 14.876,12.98975 C15.7351667,11.9055833 16.2501667,10.52975 16.2501667,9.03141667 L16.2501667,9.03141667 Z M13.1251667,2.06308333 C14.5051667,2.06308333 15.6251667,3.19725 15.6251667,4.59641667 L15.6251667,5.86391667 L14.3751667,5.86391667 L14.3751667,4.59641667 C14.3751667,3.89725 13.8151667,3.32975 13.1251667,3.32975 C13.0135,3.32975 12.9068333,3.34975 12.8035,3.37725 C13.0018333,3.74058333 13.1251667,4.15225 13.1251667,4.59641667 L13.1251667,5.86391667 L11.8751667,5.86391667 L11.8751667,4.59641667 C11.8751667,3.89725 11.3151667,3.32975 10.6251667,3.32975 L10.6251667,5.86391667 L9.37516667,5.86391667 L9.37516667,3.32975 C8.68433333,3.32975 8.12516667,3.89725 8.12516667,4.59641667 L8.12516667,5.86391667 L6.87516667,5.86391667 L6.87516667,4.59641667 C6.87516667,4.15225 6.99766667,3.74058333 7.19683333,3.37808333 C7.0935,3.34975 6.98683333,3.32975 6.87516667,3.32975 C6.18433333,3.32975 5.62516667,3.89725 5.62516667,4.59641667 L5.62516667,5.86391667 L4.37516667,5.86391667 L4.37516667,4.59641667 C4.37516667,3.19725 5.49433333,2.06308333 6.87516667,2.06308333 C7.33433333,2.06308333 7.76266667,2.19141667 8.13183333,2.41058333 C8.49933333,2.19558333 8.92016667,2.06308333 9.37516667,2.06308333 C9.58766667,2.06308333 9.79016667,2.09891667 9.98683333,2.14891667 C10.191,2.09475 10.4043333,2.06308333 10.6251667,2.06308333 C11.0826667,2.06308333 11.5051667,2.19641667 11.8743333,2.41391667 C12.2435,2.19641667 12.6676667,2.06308333 13.1251667,2.06308333 L13.1251667,2.06308333 Z M10.2726667,0.59725 L10.8618333,0.59725 L10.8618333,1.14975 L10.2726667,1.14975 L10.2726667,1.74641667 L9.72766667,1.74641667 L9.72766667,1.14975 L9.1385,1.14975 L9.1385,0.59725 L9.72766667,0.59725 L9.72766667,-0.00025 L10.2726667,-0.00025 L10.2726667,0.59725 Z" id="Fill-1"></path>
                        </g>
                        <path d="M27.3030282,123.599239 C27.3030282,123.599239 41.7608809,131.749957 43.9406937,132.683539 C47.5213156,135.953258 60.4429942,145.784248 60.4429942,145.784248 L67.2933353,145.784248 L41.7390479,128.424345 L27.3030282,123.599239 Z" id="Fill-33" fill="#AA9D65"></path>
                        <polygon id="Fill-34" fill="#AA9D65" points="39.9427983 112.531798 43.1627381 118.136782 28.4612284 114.150065 38.1830536 120.571605 27.029853 117.574362 36.1910052 122.747051 26.8246222 121.18817 34.1430641 125.108515 43.7164245 126.769574 46.7599531 118.413625"></polygon>
                        <path d="M114.440869,104.501249 C114.440869,104.501249 106.029027,145.864419 97.0512728,141.28559 C67.5146352,126.220778 49.3652486,118.697105 49.3652486,118.697105 L40.1927432,127.229465 C39.3823,128.97349 91.3091779,168.190907 102.811707,166.34121 C110.933606,165.033846 125.526824,158.697019 132.823433,125.668838 L135.744696,114.781128 L114.440869,104.501249" id="Fill-35" fill="#FCBFBF"></path>
                        <path d="M52.8707648,120.23555 C52.8707648,120.23555 39.829441,110.08667 39.7709284,111.738996 C39.7132892,113.391322 42.2031314,114.419223 43.8021847,117.743088 C43.8021847,117.743088 27.2387517,111.516299 27.5313147,113.122339 C27.8186378,114.730126 38.4295052,119.223369 38.4094188,119.468773 C38.3875857,119.71505 26.470228,115.413064 26.2693638,116.717807 C26.0702463,118.022551 37.1570744,121.986562 37.1570744,121.986562 C37.1570744,121.986562 26.5828865,119.074905 26.2894502,120.451261 C25.9968872,121.830237 35.7353055,124.531423 35.7353055,124.531423 C35.7353055,124.531423 27.5531478,122.345497 27.3033775,123.599588 C27.1487995,124.362872 49.946008,133.390406 49.7896833,133.934486 C49.704971,134.220062 52.8707648,120.23555 52.8707648,120.23555" id="Fill-36" fill="#FCBFBF"></path>
                        <path d="M141.698048,88.548618 C141.698048,88.548618 147.034916,98.9560013 138.780277,128.42452 L109.034916,114.258357 C109.034916,114.258357 120.983713,63.3331797 141.698048,88.548618" id="Fill-37" fill="#FFCD00"></path>
                        <path d="M109.446076,116.286384 C109.522928,116.304377 109.755232,115.596112 110.112421,114.299228 C110.467863,113.003218 110.949937,111.116841 111.519343,108.782451 C112.660776,104.114542 114.153284,97.6353631 115.746224,90.4880924 C116.161052,88.7196145 116.643999,87.0262423 117.435229,85.5651739 C118.20812,84.0962456 119.339946,82.9286135 120.671762,82.1234103 C123.360722,80.4981572 126.45927,80.2440204 128.922039,80.5313435 C131.418868,80.8204132 133.383844,81.5304243 134.716534,82.0352047 C136.05097,82.5495916 136.774955,82.8875674 136.816001,82.8159549 C136.846567,82.7618089 136.191575,82.3006947 134.885958,81.659676 C133.582088,81.0335039 131.609252,80.1846345 128.997145,79.7837795 C126.420844,79.3864178 123.076892,79.5479824 120.088383,81.2841474 C118.604608,82.1391301 117.298118,83.4604669 116.445755,85.0525337 C115.571559,86.6384872 115.065032,88.414825 114.644091,90.2138692 C113.045038,97.3847196 111.679161,103.876998 110.73772,108.596433 C110.267872,110.955277 109.90719,112.867853 109.682746,114.196176 C109.455682,115.526246 109.369224,116.267697 109.446076,116.286384" id="Fill-38" fill="#000000"></path>
                        <path d="M108.653361,114.132598 C108.519743,114.414681 115.225112,117.850332 123.632587,121.805609 C132.039189,125.760886 138.962016,128.737169 139.094761,128.455959 C139.227506,128.173876 132.521263,124.739972 124.112915,120.784695 C115.708933,116.827671 108.786106,113.850515 108.653361,114.132598" id="Fill-39" fill="#000000"></path>
                    </g>
                    <g id="Group-43" transform="translate(113.531915, 113.671646)">
                        <mask id="mask-4" fill="white">
                            <use xlink:href="#path-3"></use>
                        </mask>
                        <g id="Clip-42"></g>
                    </g>
                    <g id="Group-60" transform="translate(3.493290, 105.811745)">
                        <path d="M2.0385092,0.569069173 C2.0385092,0.569069173 0.908429984,0.653781448 0.908429984,2.0580839 C0.908429984,2.88337359 1.48831607,3.36632089 2.0385092,3.36632089 C2.58870232,3.36632089 3.42796517,2.57683742 3.42796517,2.07817032 C3.42796517,1.57862989 2.64546828,0.569069173 2.0385092,0.569069173" id="Fill-44" fill="#AA9D65"></path>
                        <path d="M2.18610069,4.42146904 C2.18610069,4.42146904 0.635953388,5.42666315 0.762585139,6.32094531 C0.890090213,7.21435415 1.57215502,7.74970079 2.18610069,7.74970079 C2.80004635,7.74970079 3.57468334,6.88685824 3.57468334,6.34190505 C3.57468334,5.79782518 2.86292556,4.42146904 2.18610069,4.42146904" id="Fill-46" fill="#AA9D65"></path>
                        <path d="M2.18610069,6.08532292 C2.18610069,6.08532292 0.635953388,7.09051703 0.762585139,7.98479919 C0.890090213,8.87820803 1.57215502,9.41355467 2.18610069,9.41355467 C2.80004635,9.41355467 3.57468334,8.55071212 3.57468334,8.00575893 C3.57468334,7.46167906 2.86292556,6.08532292 2.18610069,6.08532292" id="Fill-48" fill="#AA9D65"></path>
                        <path d="M2.18138475,8.8375112 C2.18138475,8.8375112 0.982313061,9.61564148 1.08099849,10.3064395 C1.17881061,10.9981109 1.56132583,11.4103191 2.0355399,11.4103191 C2.5106273,11.4103191 3.254698,10.7439741 3.254698,10.3230326 C3.254698,9.90209124 2.70450488,8.8375112 2.18138475,8.8375112" id="Fill-50" fill="#AA9D65"></path>
                        <path d="M2.0385092,0.569069173 C2.0385092,0.569069173 0.89271018,0.653781448 0.89271018,2.0580839 C0.89271018,2.88337359 1.54420871,3.36632089 2.0385092,3.36632089 C2.53280969,3.36632089 3.1563619,2.57683742 3.1563619,2.07817032 C3.1563619,1.57862989 2.58346239,0.569069173 2.0385092,0.569069173" id="Fill-52" fill="#FCBFBF"></path>
                        <path d="M2.0406925,4.26881228 C2.0406925,4.26881228 0.647743241,5.29671277 0.762148478,6.21020803 C0.876553715,7.12370328 1.48962606,7.6695298 2.0406925,7.6695298 C2.59175895,7.6695298 3.28779692,6.78834747 3.28779692,6.23204109 C3.28779692,5.67573471 2.64852491,4.26881228 2.0406925,4.26881228" id="Fill-54" fill="#FCBFBF"></path>
                        <path d="M2.0406925,5.9693457 C2.0406925,5.9693457 0.647743241,6.99724619 0.762148478,7.91074145 C0.876553715,8.8242367 1.48962606,9.37006322 2.0406925,9.37006322 C2.59175895,9.37006322 3.28779692,8.48888089 3.28779692,7.93170119 C3.28779692,7.3753948 2.64852491,5.9693457 2.0406925,5.9693457" id="Fill-56" fill="#FCBFBF"></path>
                        <path d="M2.03597656,8.78118191 C2.03597656,8.78118191 0.959170016,9.57590531 1.04737558,10.2824232 C1.13558115,10.9880677 1.60979522,11.4107557 2.03597656,11.4107557 C2.46215791,11.4107557 3.00012452,10.7286909 3.00012452,10.2990163 C3.00012452,9.86846832 2.50669735,8.78118191 2.03597656,8.78118191" id="Fill-58" fill="#FCBFBF"></path>
                    </g>
                </g>
            </g>
        </g>
    </g>
</svg>